# xmcd
#
# Track frame offsets: 
#        150
#        12712
#        24634
#        39529
#        53668
#        68706
#        83365
#        98457
#        112085
#        124212
#        139459
#        152498
#        166377
#        179983
#        192391
#        204199
#        218513
#
# Disc length: 3144 seconds
#
# Revision: 0
# Processed by: cddbd v1.5.2PL0 Copyright (c) Steve Scherf et al.
# Submitted via: ExactAudioCopy v1.0b3
#
DISCID=ea0c4611
DTITLE=Caro Emerald presents - Drum Rolls and Heart Breaks [CD2)
DYEAR=2012
DGENRE=Swing
TTITLE0=June Christy - It's Been a Long, Long Time
TTITLE1=Sarah Vaughan - Whatever Lola Wants (Lola Gets)
TTITLE2=Doris Day and Les Brown - Sooner Or Later
TTITLE3=Fats Waller - Your Feet's Too Big
TTITLE4=Billie Holiday - Pennies From Heaven
TTITLE5=Django Reinhardt and Jean Sablon - Darling, Je Vous Aime Beaucou
TTITLE5=p
TTITLE6=Luis Arcaraz - Viajera
TTITLE7=Martin Denny - Martinique
TTITLE8=The Boswell Sisters - Heebie Jeebies
TTITLE9=Xavier Cugat and Dinah Shore - The Breeze And I
TTITLE10=The Andrews Sisters - Toolie Oolie Doolie (The Yodel Polka)
TTITLE11=Eartha Kitt - My Heart Belongs to Daddy
TTITLE12=The Dinning Sisters - You're a Character, Dear
TTITLE13=Lina Romay - Don't Get Around Much Anymore
TTITLE14=Les Baxter - Adios
TTITLE15=Chick Webb and Ella Fitzgerald - You're Gonna Lose Your Gal
TTITLE16=Caro Emerald - Dream a Little Dream of Me
EXTD=
EXTT0=
EXTT1=
EXTT2=
EXTT3=
EXTT4=
EXTT5=
EXTT6=
EXTT7=
EXTT8=
EXTT9=
EXTT10=
EXTT11=
EXTT12=
EXTT13=
EXTT14=
EXTT15=
EXTT16=
PLAYORDER=
